<mxfile host="Electron" agent="Mozilla/5.0 (Windows NT 10.0; Win64; x64) AppleWebKit/537.36 (KHTML, like Gecko) draw.io/27.0.9 Chrome/134.0.6998.205 Electron/35.4.0 Safari/537.36" version="27.0.9">
  <diagram name="Page-1" id="dnzu7oyWVo4Xms6MdmBO">
    <mxGraphModel dx="1125" dy="780" grid="1" gridSize="10" guides="1" tooltips="1" connect="1" arrows="1" fold="1" page="1" pageScale="1" pageWidth="850" pageHeight="1100" math="0" shadow="0">
      <root>
        <mxCell id="0" />
        <mxCell id="1" parent="0" />
        <mxCell id="humPAuwe_XTdWQdzUGlo-5" value="" style="edgeStyle=orthogonalEdgeStyle;rounded=0;orthogonalLoop=1;jettySize=auto;html=1;" edge="1" parent="1" source="humPAuwe_XTdWQdzUGlo-1" target="humPAuwe_XTdWQdzUGlo-4">
          <mxGeometry relative="1" as="geometry" />
        </mxCell>
        <mxCell id="humPAuwe_XTdWQdzUGlo-1" value="setBooking()" style="strokeWidth=2;html=1;shape=mxgraph.flowchart.terminator;whiteSpace=wrap;fillColor=#d80073;fontColor=#ffffff;strokeColor=#A50040;" vertex="1" parent="1">
          <mxGeometry x="375" y="40" width="100" height="60" as="geometry" />
        </mxCell>
        <mxCell id="humPAuwe_XTdWQdzUGlo-7" value="" style="edgeStyle=orthogonalEdgeStyle;rounded=0;orthogonalLoop=1;jettySize=auto;html=1;fontFamily=Helvetica;fontSize=12;fontColor=default;" edge="1" parent="1" source="humPAuwe_XTdWQdzUGlo-4" target="humPAuwe_XTdWQdzUGlo-6">
          <mxGeometry relative="1" as="geometry" />
        </mxCell>
        <mxCell id="humPAuwe_XTdWQdzUGlo-4" value="Declare:&lt;div&gt;bookingTypeID, bookingType&lt;/div&gt;" style="whiteSpace=wrap;html=1;fillColor=#FA6800;strokeColor=#C73500;strokeWidth=2;" vertex="1" parent="1">
          <mxGeometry x="333" y="140" width="185" height="60" as="geometry" />
        </mxCell>
        <mxCell id="humPAuwe_XTdWQdzUGlo-9" value="" style="edgeStyle=orthogonalEdgeStyle;rounded=0;orthogonalLoop=1;jettySize=auto;html=1;fontFamily=Helvetica;fontSize=12;fontColor=default;" edge="1" parent="1" source="humPAuwe_XTdWQdzUGlo-6" target="humPAuwe_XTdWQdzUGlo-8">
          <mxGeometry relative="1" as="geometry" />
        </mxCell>
        <mxCell id="humPAuwe_XTdWQdzUGlo-6" value="&lt;div&gt;Display:&lt;/div&gt;&quot;1 - Solo&quot;" style="shape=parallelogram;perimeter=parallelogramPerimeter;whiteSpace=wrap;html=1;fixedSize=1;fillColor=#008a00;strokeColor=#005700;strokeWidth=2;fontColor=#ffffff;" vertex="1" parent="1">
          <mxGeometry x="365.5" y="240" width="120" height="60" as="geometry" />
        </mxCell>
        <mxCell id="humPAuwe_XTdWQdzUGlo-11" value="" style="edgeStyle=orthogonalEdgeStyle;rounded=0;orthogonalLoop=1;jettySize=auto;html=1;fontFamily=Helvetica;fontSize=12;fontColor=default;" edge="1" parent="1" source="humPAuwe_XTdWQdzUGlo-8" target="humPAuwe_XTdWQdzUGlo-10">
          <mxGeometry relative="1" as="geometry" />
        </mxCell>
        <mxCell id="humPAuwe_XTdWQdzUGlo-8" value="&lt;div&gt;Display:&lt;/div&gt;&quot;2 - Group (Maximum 5)&quot;" style="shape=parallelogram;perimeter=parallelogramPerimeter;whiteSpace=wrap;html=1;fixedSize=1;fillColor=#008a00;strokeColor=#005700;strokeWidth=2;fontColor=#ffffff;" vertex="1" parent="1">
          <mxGeometry x="320" y="330" width="210" height="60" as="geometry" />
        </mxCell>
        <mxCell id="humPAuwe_XTdWQdzUGlo-13" value="" style="edgeStyle=orthogonalEdgeStyle;rounded=0;orthogonalLoop=1;jettySize=auto;html=1;fontFamily=Helvetica;fontSize=12;fontColor=default;" edge="1" parent="1" source="humPAuwe_XTdWQdzUGlo-10" target="humPAuwe_XTdWQdzUGlo-12">
          <mxGeometry relative="1" as="geometry" />
        </mxCell>
        <mxCell id="humPAuwe_XTdWQdzUGlo-10" value="&lt;div&gt;Prompt:&lt;/div&gt;&quot;Please choose your desired booking (1 - 2): &quot;" style="shape=parallelogram;perimeter=parallelogramPerimeter;whiteSpace=wrap;html=1;fixedSize=1;fillColor=#008a00;strokeColor=#005700;strokeWidth=2;fontColor=#ffffff;" vertex="1" parent="1">
          <mxGeometry x="280" y="420" width="290" height="60" as="geometry" />
        </mxCell>
        <mxCell id="humPAuwe_XTdWQdzUGlo-15" value="" style="edgeStyle=orthogonalEdgeStyle;rounded=0;orthogonalLoop=1;jettySize=auto;html=1;fontFamily=Helvetica;fontSize=12;fontColor=default;" edge="1" parent="1" source="humPAuwe_XTdWQdzUGlo-12" target="humPAuwe_XTdWQdzUGlo-14">
          <mxGeometry relative="1" as="geometry" />
        </mxCell>
        <mxCell id="humPAuwe_XTdWQdzUGlo-12" value="Input:&lt;div&gt;bookingTypeID&lt;/div&gt;" style="whiteSpace=wrap;html=1;fillColor=#FA6800;strokeColor=#C73500;strokeWidth=2;" vertex="1" parent="1">
          <mxGeometry x="367" y="510" width="117" height="40" as="geometry" />
        </mxCell>
        <mxCell id="humPAuwe_XTdWQdzUGlo-19" value="" style="edgeStyle=orthogonalEdgeStyle;rounded=0;orthogonalLoop=1;jettySize=auto;html=1;fontFamily=Helvetica;fontSize=12;fontColor=default;" edge="1" parent="1" source="humPAuwe_XTdWQdzUGlo-14" target="humPAuwe_XTdWQdzUGlo-18">
          <mxGeometry relative="1" as="geometry" />
        </mxCell>
        <mxCell id="humPAuwe_XTdWQdzUGlo-20" value="True" style="edgeLabel;html=1;align=center;verticalAlign=middle;resizable=0;points=[];strokeColor=#C73500;strokeWidth=2;fontFamily=Helvetica;fontSize=12;fontColor=default;fillColor=#FA6800;" vertex="1" connectable="0" parent="humPAuwe_XTdWQdzUGlo-19">
          <mxGeometry x="-0.1556" relative="1" as="geometry">
            <mxPoint as="offset" />
          </mxGeometry>
        </mxCell>
        <mxCell id="humPAuwe_XTdWQdzUGlo-27" value="" style="edgeStyle=orthogonalEdgeStyle;rounded=0;orthogonalLoop=1;jettySize=auto;html=1;fontFamily=Helvetica;fontSize=12;fontColor=default;" edge="1" parent="1" source="humPAuwe_XTdWQdzUGlo-14" target="humPAuwe_XTdWQdzUGlo-26">
          <mxGeometry relative="1" as="geometry" />
        </mxCell>
        <mxCell id="humPAuwe_XTdWQdzUGlo-28" value="False" style="edgeLabel;html=1;align=center;verticalAlign=middle;resizable=0;points=[];strokeColor=#C73500;strokeWidth=2;fontFamily=Helvetica;fontSize=12;fontColor=default;fillColor=#FA6800;" vertex="1" connectable="0" parent="humPAuwe_XTdWQdzUGlo-27">
          <mxGeometry x="-0.3099" y="-1" relative="1" as="geometry">
            <mxPoint y="5" as="offset" />
          </mxGeometry>
        </mxCell>
        <mxCell id="humPAuwe_XTdWQdzUGlo-14" value="cin.fail() || (bookingTypeID != 1 &amp;amp;&amp;amp; bookingTypeID != 2)" style="rhombus;whiteSpace=wrap;html=1;fillColor=#1ba1e2;strokeColor=#006EAF;strokeWidth=2;fontColor=#ffffff;" vertex="1" parent="1">
          <mxGeometry x="309.5" y="580" width="230.5" height="150" as="geometry" />
        </mxCell>
        <mxCell id="humPAuwe_XTdWQdzUGlo-24" value="" style="edgeStyle=orthogonalEdgeStyle;rounded=0;orthogonalLoop=1;jettySize=auto;html=1;fontFamily=Helvetica;fontSize=12;fontColor=default;" edge="1" parent="1" source="humPAuwe_XTdWQdzUGlo-18" target="humPAuwe_XTdWQdzUGlo-23">
          <mxGeometry relative="1" as="geometry" />
        </mxCell>
        <mxCell id="humPAuwe_XTdWQdzUGlo-18" value="Prompt:&lt;div&gt;&quot;Please enter valid booking type (1 - 2): &quot;&lt;/div&gt;" style="shape=parallelogram;perimeter=parallelogramPerimeter;whiteSpace=wrap;html=1;fixedSize=1;fillColor=#008a00;strokeColor=#005700;fontColor=#ffffff;strokeWidth=2;" vertex="1" parent="1">
          <mxGeometry x="620" y="625" width="260" height="60" as="geometry" />
        </mxCell>
        <mxCell id="humPAuwe_XTdWQdzUGlo-25" style="edgeStyle=orthogonalEdgeStyle;rounded=0;orthogonalLoop=1;jettySize=auto;html=1;exitX=0;exitY=0.5;exitDx=0;exitDy=0;entryX=1;entryY=1;entryDx=0;entryDy=0;fontFamily=Helvetica;fontSize=12;fontColor=default;" edge="1" parent="1" source="humPAuwe_XTdWQdzUGlo-23" target="humPAuwe_XTdWQdzUGlo-14">
          <mxGeometry relative="1" as="geometry">
            <Array as="points">
              <mxPoint x="482" y="750" />
            </Array>
          </mxGeometry>
        </mxCell>
        <mxCell id="humPAuwe_XTdWQdzUGlo-23" value="Input:&lt;div&gt;bookingTypeID&lt;/div&gt;" style="whiteSpace=wrap;html=1;fillColor=#FA6800;strokeColor=#C73500;strokeWidth=2;" vertex="1" parent="1">
          <mxGeometry x="691.5" y="730" width="117" height="40" as="geometry" />
        </mxCell>
        <mxCell id="humPAuwe_XTdWQdzUGlo-30" value="" style="edgeStyle=orthogonalEdgeStyle;rounded=0;orthogonalLoop=1;jettySize=auto;html=1;fontFamily=Helvetica;fontSize=12;fontColor=default;" edge="1" parent="1" source="humPAuwe_XTdWQdzUGlo-26" target="humPAuwe_XTdWQdzUGlo-29">
          <mxGeometry relative="1" as="geometry" />
        </mxCell>
        <mxCell id="humPAuwe_XTdWQdzUGlo-33" value="True" style="edgeLabel;html=1;align=center;verticalAlign=middle;resizable=0;points=[];strokeColor=#C73500;strokeWidth=2;fontFamily=Helvetica;fontSize=12;fontColor=default;fillColor=#FA6800;" vertex="1" connectable="0" parent="humPAuwe_XTdWQdzUGlo-30">
          <mxGeometry x="-0.4729" y="2" relative="1" as="geometry">
            <mxPoint x="10" y="2" as="offset" />
          </mxGeometry>
        </mxCell>
        <mxCell id="humPAuwe_XTdWQdzUGlo-32" value="" style="edgeStyle=orthogonalEdgeStyle;rounded=0;orthogonalLoop=1;jettySize=auto;html=1;fontFamily=Helvetica;fontSize=12;fontColor=default;" edge="1" parent="1" source="humPAuwe_XTdWQdzUGlo-26" target="humPAuwe_XTdWQdzUGlo-31">
          <mxGeometry relative="1" as="geometry" />
        </mxCell>
        <mxCell id="humPAuwe_XTdWQdzUGlo-34" value="False" style="edgeLabel;html=1;align=center;verticalAlign=middle;resizable=0;points=[];strokeColor=#C73500;strokeWidth=2;fontFamily=Helvetica;fontSize=12;fontColor=default;fillColor=#FA6800;" vertex="1" connectable="0" parent="humPAuwe_XTdWQdzUGlo-32">
          <mxGeometry x="0.2158" y="1" relative="1" as="geometry">
            <mxPoint x="8" y="-2" as="offset" />
          </mxGeometry>
        </mxCell>
        <mxCell id="humPAuwe_XTdWQdzUGlo-26" value="bookingTypeID == 1" style="rhombus;whiteSpace=wrap;html=1;fillColor=#1ba1e2;strokeColor=#006EAF;fontColor=#ffffff;strokeWidth=2;" vertex="1" parent="1">
          <mxGeometry x="356.75" y="785" width="135.25" height="105" as="geometry" />
        </mxCell>
        <mxCell id="humPAuwe_XTdWQdzUGlo-29" value="return &quot;Solo&quot;" style="strokeWidth=2;html=1;shape=mxgraph.flowchart.terminator;whiteSpace=wrap;fillColor=#d80073;fontColor=#ffffff;strokeColor=#A50040;" vertex="1" parent="1">
          <mxGeometry x="570" y="817.5" width="80" height="40" as="geometry" />
        </mxCell>
        <mxCell id="humPAuwe_XTdWQdzUGlo-31" value="return &quot;Group&quot;" style="strokeWidth=2;html=1;shape=mxgraph.flowchart.terminator;whiteSpace=wrap;fillColor=#d80073;fontColor=#ffffff;strokeColor=#A50040;" vertex="1" parent="1">
          <mxGeometry x="200" y="817.5" width="90" height="40" as="geometry" />
        </mxCell>
      </root>
    </mxGraphModel>
  </diagram>
</mxfile>
